<?xml version="1.0" encoding="UTF-8" standalone="no"?>
<svg
   xmlns:dc="http://purl.org/dc/elements/1.1/"
   xmlns:cc="http://creativecommons.org/ns#"
   xmlns:rdf="http://www.w3.org/1999/02/22-rdf-syntax-ns#"
   xmlns:svg="http://www.w3.org/2000/svg"
   xmlns="http://www.w3.org/2000/svg"
   width="100pt"
   height="100pt"
   version="1.1"
   viewBox="0 0 100 100"
   id="svg3357">
  <metadata
     id="metadata3369">
    <rdf:RDF>
      <cc:Work
         rdf:about="">
        <dc:format>image/svg+xml</dc:format>
        <dc:type
           rdf:resource="http://purl.org/dc/dcmitype/StillImage" />
        <dc:title></dc:title>
      </cc:Work>
    </rdf:RDF>
  </metadata>
  <defs
     id="defs3367" />
  <g
     style="fill:#ffffff"
     id="g3359">
    <path
       style="fill:#ffffff"
       d="M 66.550781 1.3652344 C 61.781631 1.2881139 56.851562 1.8349844 51.792969 3.0078125 C 41.890594 5.3075625 34.809609 9.6482031 28.818359 17.080078 C 22.856484 24.492203 19.912109 32.716328 20.068359 41.548828 C 20.097659 42.876953 20.205072 44.218734 20.380859 45.537109 C 20.244134 46.015622 20.019541 46.508816 19.697266 47.041016 C 19.560553 47.255866 19.429691 47.491213 19.322266 47.710938 C 18.350591 49.458938 17.397406 51.186469 16.425781 52.949219 C 14.643531 56.196344 12.803781 59.556656 10.972656 62.847656 C 9.8496062 64.874031 9.6104125 67.105391 10.289062 69.556641 C 10.660163 70.806641 11.254831 71.949313 12.128906 73.023438 C 13.339844 74.458937 14.9755 75.508813 17.109375 76.226562 C 16.425775 77.994187 16.523441 79.604484 17.392578 81.005859 C 17.363278 81.147459 17.344725 81.298828 17.320312 81.455078 C 16.978512 83.994078 17.818378 86.171813 19.751953 87.773438 C 18.418953 92.856437 20.3037 98.418016 24.429688 101.41602 C 25.679688 102.30957 27.037031 103.07706 28.550781 103.72656 C 29.180669 103.98535 29.892562 104.27833 30.664062 104.51758 C 35.517562 106.09958 40.460344 106.70991 45.230469 107.30078 L 46.230469 107.42188 C 52.734344 108.28125 55.624953 113.98391 58.486328 120.78516 C 59.218753 122.52341 60.904313 123.64258 62.789062 123.64258 C 63.526363 123.64258 64.257859 123.46583 64.912109 123.12891 C 67.031234 122.04004 74.726062 118.07614 81.132812 114.77539 L 85.71875 112.41211 C 90.308625 110.02936 95.053969 107.56842 99.824219 105.10742 L 100.32812 104.84766 L 100.84961 104.35547 C 101.7627 103.44727 102.72464 101.83986 102.11914 99.349609 C 101.38672 96.273484 100.88477 93.911031 101.06055 91.503906 C 101.30957 88.173781 102.2852 84.814391 104.13086 80.947266 C 105.08788 78.925766 106.11323 76.875078 107.09961 74.892578 L 107.1582 74.765625 C 108.37403 72.329125 109.62992 69.813484 110.82617 67.240234 C 114.98142 58.304734 116.10844 49.062656 114.17969 39.785156 C 110.68356 22.968906 100.55703 11.181953 84.082031 4.7519531 C 78.547664 2.5958906 72.682546 1.4643893 66.550781 1.3652344 z M 62.546875 28.644531 C 62.69717 28.647888 62.841797 28.666993 62.978516 28.710938 C 63.266603 28.779297 63.505866 28.975588 63.681641 29.351562 C 64.277341 30.5625 63.042966 30.9385 62.447266 31.578125 C 60.665016 33.42875 60.176759 36.069344 61.255859 38.339844 C 62.359372 40.717719 64.649375 41.998125 67.359375 41.734375 C 69.78125 41.51465 71.788109 39.771453 72.427734 37.330078 C 73.111334 34.751953 72.207025 32.748984 70.3125 31.005859 C 69.428712 30.219722 69.449219 29.140656 70.621094 28.847656 C 70.821294 28.779297 71.040044 28.759766 71.191406 28.759766 C 71.806644 28.759766 72.427694 28.760741 73.042969 28.804688 C 73.970706 28.848633 74.916969 28.912115 75.839844 28.980469 C 77.998094 29.08789 80.157234 29.224606 82.427734 29.332031 L 82.646484 29.332031 C 82.578124 31.138656 82.490231 32.900422 82.402344 34.638672 C 82.314453 36.376922 82.2705 38.095734 82.226562 39.833984 C 82.226562 39.965822 82.207031 40.123047 82.207031 40.318359 C 82.207031 41.221684 82.295898 42.543922 83.199219 42.607422 C 83.902344 42.651367 84.654406 41.592734 85.113281 41.177734 C 86.876031 39.483359 88.921922 38.974625 91.216797 39.765625 C 93.584922 40.5957 94.932625 42.358437 95.171875 44.804688 L 95.171875 44.9375 C 95.34765 47.2275 94.379894 49.057656 92.441406 50.332031 C 89.887656 51.982406 86.889703 51.411194 84.580078 48.964844 C 84.335941 48.720706 83.388678 48.124997 83.017578 48.193359 C 82.597653 48.281249 82.333988 48.921881 82.226562 49.449219 C 82.207031 49.624994 82.183594 49.781247 82.183594 49.888672 C 82.203125 51.626922 82.339847 53.369172 82.427734 55.107422 C 82.427734 55.351559 82.447266 55.571284 82.447266 55.810547 C 82.491212 57.309547 82.466797 58.828125 82.447266 60.390625 L 82.447266 61.337891 C 82.027341 61.318361 81.567366 61.293945 81.103516 61.269531 C 78.418016 61.137694 75.728469 61.005856 73.042969 60.917969 C 72.359369 60.898438 71.656156 60.874023 70.972656 60.849609 C 70.884765 60.849609 70.752925 60.850586 70.640625 60.894531 C 70.201175 60.982421 69.693363 61.246097 69.625 61.490234 C 69.361325 62.657222 70.74805 63.692406 71.34375 64.488281 C 72.02735 65.391606 72.48535 66.382766 72.578125 67.525391 C 72.709963 69.307641 72.006806 71.093812 70.683594 72.304688 C 68.173844 74.594687 64.316297 74.306684 62.138672 71.708984 C 60.024422 69.174859 60.445269 65.717703 63.042969 63.251953 C 63.946294 62.412116 63.857417 61.376984 62.998047 61.005859 C 62.778322 60.917968 62.490241 60.849609 62.158203 60.849609 C 61.542966 60.849609 60.923869 60.870116 60.308594 60.894531 C 59.361331 60.938476 58.432609 61.000974 57.490234 61.025391 C 55.263734 61.069337 53.041969 61.044922 50.683594 61.044922 C 50.683594 60.849609 50.703125 60.606444 50.703125 60.386719 C 50.722656 59.859369 50.771486 59.262731 50.791016 58.691406 C 50.878907 56.777406 50.987303 54.834047 51.080078 52.919922 C 51.099609 52.148434 51.455075 50.455062 51.210938 49.351562 C 51.123047 48.931638 50.966806 48.604491 50.683594 48.423828 C 49.428719 47.608403 47.227578 50.449266 46.080078 50.869141 C 44.341828 51.484378 42.378938 51.289062 40.835938 50.273438 C 39.009813 49.0625 38.061516 46.967766 38.212891 44.853516 C 38.256837 44.169928 38.432609 43.466703 38.740234 42.783203 C 39.995109 40.141578 43.056578 38.730469 45.830078 39.746094 C 46.909178 40.166019 47.793937 41.114312 48.804688 41.773438 C 50.127937 42.588863 51.030266 42.564447 51.181641 40.826172 C 51.201173 40.669922 51.201172 40.538081 51.201172 40.386719 C 51.220702 39.595706 51.13379 38.798812 51.070312 38.007812 C 50.938475 35.146437 50.805659 32.305656 50.693359 29.332031 C 54.042984 29.156256 57.211828 28.956056 60.361328 28.824219 C 60.625003 28.804688 60.888681 28.803711 61.152344 28.779297 C 61.599119 28.764647 62.09599 28.634461 62.546875 28.644531 z "
       transform="scale(0.8,0.8)"
       id="path3363" />
  </g>
</svg>
